<svg id="Layer_1" data-name="Layer 1" xmlns="http://www.w3.org/2000/svg" xmlns:xlink="http://www.w3.org/1999/xlink" viewBox="0 0 904 904"><defs><style>.cls-1{fill:#7bd1ea;}.cls-2{fill:#a7ddef;}.cls-3{fill:#ee7aaf;}.cls-4{fill:#0a1337;}.cls-5{fill:url(#linear-gradient);}.cls-6{fill:#f4867b;}.cls-7{fill:#0c1437;}.cls-8{fill:url(#linear-gradient-2);}</style><linearGradient id="linear-gradient" x1="141.04" y1="801.2" x2="479.97" y2="106.29" gradientUnits="userSpaceOnUse"><stop offset="0" stop-color="#ed2d8f"/><stop offset="0.12" stop-color="#ed308c"/><stop offset="0.22" stop-color="#ee3a83"/><stop offset="0.3" stop-color="#ef4875"/><stop offset="0.45" stop-color="#ef4d77"/><stop offset="0.62" stop-color="#f05b7e"/><stop offset="0.64" stop-color="#f05d7f"/><stop offset="0.7" stop-color="#f26a7f"/><stop offset="0.82" stop-color="#f68d7f"/><stop offset="0.98" stop-color="#fdc580"/><stop offset="1" stop-color="#fecc80"/></linearGradient><linearGradient id="linear-gradient-2" x1="480.63" y1="424.04" x2="642.35" y2="273.23" gradientUnits="userSpaceOnUse"><stop offset="0" stop-color="#ffdf6e"/><stop offset="1" stop-color="#fdfcef"/></linearGradient></defs><circle class="cls-1" cx="452.05" cy="452.11" r="450"/><g id="spX4U8.tif"><path class="cls-2" d="M452.05,904.1c.27-.61.53-1.23.8-1.84"/><path class="cls-3" d="M72.69,208.3c-1.79,6.63-5.83,11.88-10.35,16.83"/><path class="cls-4" d="M755.79,444.17c-1.55,2.55-3.81,6.12-6.74,10.26a167.25,167.25,0,0,1-40.58,40.39c-14.92,10.34-30,14.5-47.62,17.39a6.53,6.53,0,0,1-2.25-.47l-4.76.5-4.61.17c-2.69.19-6.67.38-11.47.26-17.82-.44-31-4.75-42-8.48-18.54-6.25-37.23-12.66-56.93-19.74-.58-1-1.46-.55-2.27-.48q0,139.29-.07,278.59c0,10.54,6.5,20,15.73,23.22,11.05,3.82,22.37.79,29.17-7.86,2.22-2.82,4.42-5.66,6.48-8.59,4.32-6.16,6.37-8.35,12.08-15.64,4.84-6.17,13.48-17.92,30.11-42.05,27.17-37.11,49.88-69,67.29-93.74,22.43-31.88,32.05-46.72,38.81-60.31,2.68-5.4,4.52-9.82,5.31-11.69C747.74,531,758.18,499.16,755.79,444.17Z"/><path class="cls-5" d="M509.14,392.82c-11-13.29-24.56-23.87-38.42-33.76-29.46-21-59.65-41-89.35-61.71-10.7-7.45-16.8-18.27-17.33-31.22-.81-20,8.89-34.15,27.07-42.09a36.5,36.5,0,0,1,30.51.26c15.23,6.91,28.18,17.62,42.46,26.14,11.58,6.9,22,15.7,34.5,21.1,4.19,1.82,25.66,12.36,47.38,6.73,27.89-7.22,39.56-36.55,40.94-40.17-.86-14.32-4.42-38.34-20-61.7-9-13.56-18.71-21-37.65-36.54-33.53-27.45-71.08-47.36-113-58.85-18.31-5-37-7.43-55.76-9.77-28-3.49-55.56-1.19-83.1,3.65-7.56,1.48-15.25,2.48-22.66,4.53a320,320,0,0,0-94.57,41.75c-6.16,4-15.08,10.16-25.4,18.42-3.34,2.61-7.63,6.06-12.5,10.25S113,158,110.39,160.55A275.28,275.28,0,0,0,85.68,188.8c-6.42,8.45-13.51,18.94-23.34,36.33-6.87,12.15-19.45,34.42-30.51,62.45-4,10.16-21.7,56.3-27.67,120.63A463.14,463.14,0,0,0,8.7,529.64,450,450,0,0,0,340.64,888.21a466.68,466.68,0,0,0,59.52,10.94c20.58,2.4,37.42,2.88,43.95,3,3.59.08,6.59.09,8.74.1-1-1.51-2.65-3.76-4.78-6.37a116.7,116.7,0,0,0-15.76-15.66c-.53-.46-6.42-6.37-18.2-18.19-17.33-17.4-44.17-45.31-56.43-57.4-26.48-26.1-41.92-51.93-60-82.2-14.17-23.7-39.05-66-54.8-126.56-26.57-102.16-.63-154.15,7.89-163.1,3.63-3.82,16.11-16.46,35.71-21.86,38.5-10.61,78.19,13.85,133.12,32.31,1.18.4,5.57,1.86,11.53,3.93,13.85,4.8,23.59,8.53,62,21.93C507.53,474.14,522,479,536.52,484c.37-8.23.55-12.32.55-12.32h0v0a1.42,1.42,0,0,0,0-.15v-.17c0-1.11,0-1.66,0-1.66,0-.45-.05-3.74-.16-14.33A86.86,86.86,0,0,0,511.28,395l-2.14-2.21m-4.84-.1"/><path class="cls-6" d="M536.58,448.93c1.72,2,1.58,4.17.33,6.36"/><path class="cls-6" d="M531.65,427.38c1.76,1.38,2.68,3.08,2.1,5.37"/><path class="cls-7" d="M428.58,263.81a23.12,23.12,0,0,1-22.7,23.08c-12.18,0-22.74-10.75-22.7-23.21,0-12.28,10.07-22.13,22.67-22.26C418.81,241.29,428.47,250.81,428.58,263.81Z"/><path class="cls-8" d="M536.52,484v0c50,35.95,111.8,44,160.4,19.29,33.4-17,51.09-44.57,58.88-59.09a159,159,0,0,0-5.25-30.37C745,393.55,732.21,363.12,670,305.37A801.82,801.82,0,0,0,586.9,238.1c-1.38,3.62-13,33-40.94,40.17-21.72,5.63-43.19-4.91-47.38-6.73-12.46-5.4-22.92-14.2-34.5-21.1-14.28-8.52-27.23-19.23-42.46-26.14a36.5,36.5,0,0,0-30.51-.26C372.93,232,363.23,246.11,364,266.13c.53,12.95,6.63,23.77,17.33,31.22,29.7,20.69,59.89,40.69,89.35,61.71a249,249,0,0,1,38.42,33.76c12.57,13.58,17.18,21.71,20,27.94a87.94,87.94,0,0,1,7.75,34.53m-131-168.4c-12.18,0-22.74-10.75-22.7-23.21,0-12.28,10.07-22.13,22.67-22.26,13-.13,22.62,9.39,22.73,22.39A23.12,23.12,0,0,1,405.88,286.89Z"/></g></svg>